<svg width="50" height="48" viewBox="0 0 50 48" fill="none" xmlns="http://www.w3.org/2000/svg">
<path d="M49.9036 26.3075C49.4547 21.792 47.4374 17.535 44.2231 14.3206C41.4761 11.5738 38.114 9.80856 34.5762 9.02366V6.54238C36.0212 6.18291 37.0952 4.87497 37.0952 3.32036C37.0952 1.48947 35.6057 0 33.7748 0H26.7435C24.9126 0 23.4231 1.48947 23.4231 3.32036C23.4231 4.87488 24.4972 6.18281 25.942 6.54238V9.03056C22.4151 9.81876 19.0641 11.5816 16.325 14.3207C15.7255 14.9201 15.1728 15.5489 14.6668 16.2024C14.6423 16.2006 14.6178 16.1987 14.5928 16.1987H7.63362C7.09435 16.1987 6.65704 16.6359 6.65704 17.1753C6.65704 17.7147 7.09435 18.1519 7.63362 18.1519H13.338C12.622 19.3506 12.0446 20.6095 11.6052 21.9055H0.976578C0.437312 21.9055 0 22.3427 0 22.882C0 23.4214 0.437312 23.8586 0.976578 23.8586H11.0533C10.7718 25.0941 10.6103 26.3514 10.5686 27.6123H6.2501C5.71083 27.6123 5.27352 28.0495 5.27352 28.5889C5.27352 29.1282 5.71083 29.5654 6.2501 29.5654H10.5998C10.6822 30.8295 10.8854 32.087 11.2095 33.3191H4.88289C4.34362 33.3191 3.90631 33.7563 3.90631 34.2957C3.90631 34.8351 4.34362 35.2723 4.88289 35.2723H11.8328C12.7908 37.8066 14.288 40.1819 16.325 42.2189C19.5424 45.4363 23.8038 47.4541 28.324 47.9007C28.9691 47.9644 29.6147 47.9959 30.2595 47.9959C34.0703 47.9959 37.8326 46.8931 41.0251 44.8141C41.477 44.5198 41.6049 43.9148 41.3105 43.4628C41.0162 43.0109 40.4112 42.883 39.9592 43.1774C32.9711 47.7279 23.6123 46.744 17.706 40.8378C10.776 33.9078 10.776 22.6319 17.706 15.7018C24.6359 8.77191 35.9118 8.77191 42.8419 15.7018C48.7403 21.6004 49.7296 30.9512 45.1941 37.9359C44.9003 38.3882 45.0289 38.9931 45.4812 39.2868C45.9337 39.5805 46.5384 39.4519 46.8321 38.9996C49.2554 35.2676 50.3462 30.7602 49.9036 26.3075ZM25.3763 3.32046C25.3763 2.56654 25.9896 1.95325 26.7435 1.95325H33.7748C34.5288 1.95325 35.1421 2.56654 35.1421 3.32046C35.1421 4.07438 34.5288 4.68767 33.7748 4.68767H33.5996H26.9186H26.7435C25.9896 4.68767 25.3763 4.07428 25.3763 3.32046ZM27.8952 8.69486V6.64082H32.6231V8.69134C31.0531 8.50462 29.4648 8.50579 27.8952 8.69486Z" fill="#01C4FA"/>
<path d="M43.5329 40.5512C43.2751 40.5512 43.0241 40.6557 42.8426 40.8374C42.6599 41.019 42.5563 41.271 42.5563 41.5278C42.5563 41.7846 42.6599 42.0366 42.8426 42.2182C43.0241 42.4009 43.2752 42.5044 43.5329 42.5044C43.7897 42.5044 44.0407 42.4009 44.2233 42.2182C44.405 42.0366 44.5095 41.7846 44.5095 41.5278C44.5095 41.271 44.4051 41.019 44.2233 40.8374C44.0407 40.6557 43.7896 40.5512 43.5329 40.5512Z" fill="#01C4FA"/>
<path d="M30.274 13.1201C21.9206 13.1201 15.1245 19.9161 15.1245 28.2696C15.1245 36.6232 21.9206 43.4192 30.274 43.4192C38.6275 43.4192 45.4236 36.6232 45.4236 28.2696C45.4236 19.9161 38.6275 13.1201 30.274 13.1201ZM30.274 41.466C22.9974 41.466 17.0776 35.5461 17.0776 28.2696C17.0776 20.9932 22.9974 15.0732 30.274 15.0732C37.5506 15.0732 43.4704 20.9932 43.4704 28.2696C43.4704 35.5461 37.5506 41.466 30.274 41.466Z" fill="#01C4FA"/>
<path d="M36.4515 20.7112L31.6145 25.5481C31.21 25.3481 30.755 25.2351 30.274 25.2351C29.793 25.2351 29.3381 25.3481 28.9336 25.5481L26.7688 23.3833C26.3873 23.0019 25.7692 23.0019 25.3876 23.3833C25.0063 23.7646 25.0063 24.383 25.3876 24.7644L27.5524 26.9291C27.3523 27.3336 27.2394 27.7886 27.2394 28.2696C27.2394 29.9429 28.6006 31.3042 30.274 31.3042C31.9474 31.3042 33.3086 29.9429 33.3086 28.2696C33.3086 27.7886 33.1956 27.3336 32.9956 26.9291L37.6906 22.2341L37.8325 22.0922C38.2139 21.7109 38.2139 21.0925 37.8325 20.7112C37.4512 20.3298 36.833 20.3298 36.4515 20.7112ZM30.274 29.3511C29.6777 29.3511 29.1926 28.866 29.1926 28.2697C29.1926 27.6734 29.6777 27.1882 30.274 27.1882C30.8703 27.1882 31.3555 27.6734 31.3555 28.2697C31.3555 28.866 30.8703 29.3511 30.274 29.3511Z" fill="#01C4FA"/>
<path d="M40.7155 27.305H39.8107C39.2714 27.305 38.8341 27.7422 38.8341 28.2815C38.8341 28.8209 39.2714 29.2581 39.8107 29.2581H40.7155C41.2547 29.2581 41.692 28.8209 41.692 28.2815C41.692 27.7422 41.2547 27.305 40.7155 27.305Z" fill="#01C4FA"/>
<path d="M20.7372 27.2811H19.8325C19.2933 27.2811 18.856 27.7183 18.856 28.2577C18.856 28.797 19.2933 29.2342 19.8325 29.2342H20.7372C21.2765 29.2342 21.7138 28.797 21.7138 28.2577C21.7138 27.7183 21.2765 27.2811 20.7372 27.2811Z" fill="#01C4FA"/>
<path d="M30.2859 19.7094C30.8252 19.7094 31.2625 19.2722 31.2625 18.7328V17.8282C31.2625 17.2888 30.8252 16.8516 30.2859 16.8516C29.7467 16.8516 29.3093 17.2888 29.3093 17.8282V18.7328C29.3093 19.2722 29.7467 19.7094 30.2859 19.7094Z" fill="#01C4FA"/>
<path d="M30.2621 36.8298C29.7228 36.8298 29.2855 37.267 29.2855 37.8064V38.7111C29.2855 39.2504 29.7228 39.6876 30.2621 39.6876C30.8013 39.6876 31.2386 39.2504 31.2386 38.7111V37.8064C31.2386 37.267 30.8013 36.8298 30.2621 36.8298Z" fill="#01C4FA"/>
<path d="M0.976562 33.3187C0.719727 33.3187 0.467773 33.4232 0.286133 33.6048C0.104492 33.7865 0 34.0384 0 34.2953C0 34.5531 0.104395 34.8041 0.286133 34.9857C0.467871 35.1673 0.719727 35.2718 0.976562 35.2718C1.2334 35.2718 1.48535 35.1673 1.66689 34.9857C1.84854 34.8041 1.95312 34.5521 1.95312 34.2953C1.95312 34.0384 1.84863 33.7865 1.66689 33.6048C1.48535 33.4232 1.2334 33.3187 0.976562 33.3187Z" fill="#01C4FA"/>
</svg>
