<svg width="55" height="45" viewBox="0 0 55 45" fill="none" xmlns="http://www.w3.org/2000/svg">
<path d="M44.3149 21.7635C49.9171 17.1567 50.3759 9.26802 45.3395 4.14365C40.7204 -0.556281 32.9889 -1.35472 27.3405 2.28498C21.1831 -1.68996 12.6689 -0.346391 8.32336 5.2858C4.33597 10.4538 5.20531 17.5333 10.3467 21.7634C3.95838 24.8438 -0.0287832 30.9167 0.000156479 37.5222V42.8794C0.000156479 43.8656 0.874183 44.6651 1.95239 44.6651H52.7093C53.7875 44.6651 54.6616 43.8656 54.6616 42.8794V37.5222C54.6904 30.9167 50.7032 24.8438 44.3149 21.7635ZM35.1395 3.59391C40.5227 3.58847 44.8916 7.57582 44.8977 12.5C44.9019 16.0118 42.6522 19.1988 39.1512 20.6402C39.0009 20.7027 38.8506 20.7598 38.6984 20.8188C38.2166 20.9966 37.7197 21.138 37.2127 21.242C37.1152 21.2617 37.0175 21.2724 36.918 21.2903C36.3515 21.3896 35.7767 21.4427 35.2 21.4492C34.9403 21.4492 34.6787 21.4313 34.4191 21.41C34.3215 21.41 34.2238 21.41 34.1263 21.3921C33.0167 21.2726 31.9374 20.9816 30.9344 20.5314C30.8974 20.5153 30.8543 20.517 30.8173 20.5028C30.622 20.4171 30.4269 20.3421 30.2531 20.2456C30.2688 20.2277 30.2785 20.2082 30.2941 20.1903C31.1893 19.1381 31.895 17.9621 32.3848 16.7064L32.4453 16.5563C32.6681 15.9566 32.841 15.3424 32.9627 14.7188C32.9803 14.6278 32.9939 14.5402 33.0096 14.4421C33.1225 13.8073 33.1819 13.1656 33.1873 12.5224C33.1816 11.8805 33.1223 11.2399 33.0096 10.6063C32.9939 10.5135 32.9803 10.4277 32.9627 10.3295C32.841 9.70602 32.6681 9.09172 32.4453 8.49202L32.3848 8.34202C31.895 7.0863 31.1892 5.91024 30.2941 4.85807C30.2784 4.84018 30.2687 4.82061 30.2531 4.80272C31.7363 4.01129 33.4224 3.59402 35.1395 3.59391ZM9.76109 12.5225C9.74725 7.60422 14.0947 3.60689 19.4715 3.59423C21.9919 3.58827 24.4167 4.47669 26.2357 6.07252C26.3489 6.17255 26.4602 6.27247 26.5694 6.37606C26.9047 6.69738 27.2139 7.04057 27.4948 7.40282C27.5807 7.51352 27.6588 7.63142 27.7388 7.74572C28.0116 8.12982 28.2511 8.53282 28.4552 8.95102C28.504 9.05282 28.5411 9.15642 28.584 9.25812C28.7898 9.72072 28.9518 10.1986 29.0682 10.6866C29.0819 10.7402 29.0858 10.7938 29.0975 10.8491C29.3448 11.9579 29.3448 13.101 29.0975 14.2098C29.0858 14.2651 29.0818 14.3187 29.0682 14.3723C28.9519 14.8603 28.7899 15.3382 28.584 15.8008C28.5411 15.9026 28.5039 16.0062 28.4552 16.1079C28.2509 16.5255 28.0114 16.9279 27.7388 17.3115C27.6587 17.4257 27.5807 17.5436 27.4948 17.6543C27.214 18.0167 26.9047 18.3598 26.5694 18.6811C26.4601 18.7847 26.3488 18.8847 26.2357 18.9846C25.4452 19.6736 24.5339 20.2362 23.5397 20.6489C23.3816 20.7149 23.2215 20.7757 23.0595 20.8275C22.5889 20.9984 22.1047 21.1356 21.611 21.2382C21.488 21.2632 21.3611 21.2774 21.2362 21.2971C20.7061 21.3874 20.1686 21.4369 19.6295 21.4453H19.4148C18.8757 21.437 18.3382 21.3874 17.8081 21.2971C17.6832 21.2774 17.5562 21.2632 17.4333 21.2382C16.9396 21.1356 16.4553 20.9984 15.9848 20.8275C15.8227 20.7686 15.6627 20.7079 15.5046 20.6489C12.0119 19.2064 9.76555 16.0277 9.76109 12.5225ZM35.1395 41.0937H3.90451V37.5223C3.87591 31.4712 8.04392 26.0686 14.2862 24.0653C17.6372 25.3415 21.4066 25.3415 24.7578 24.0653C25.4096 24.2831 26.0447 24.5402 26.6592 24.835C27.0653 25.026 27.4401 25.2439 27.8305 25.4635C28.0844 25.6081 28.342 25.7492 28.5861 25.9082C28.9629 26.1528 29.3181 26.4189 29.6676 26.6921C29.8921 26.8707 30.1146 27.0492 30.3254 27.2278C30.6475 27.5063 30.9501 27.801 31.241 28.1028C31.4498 28.3207 31.6529 28.5421 31.8462 28.7707C32.102 29.0706 32.3459 29.3778 32.5724 29.6938C32.7677 29.9617 32.9414 30.2402 33.1131 30.5188C33.3084 30.8259 33.488 31.1331 33.6519 31.4528C33.8159 31.7724 33.9604 32.1224 34.1009 32.4635C34.2238 32.7599 34.3547 33.0546 34.4561 33.3563C34.5928 33.7706 34.6885 34.1991 34.7841 34.6277C34.8427 34.8812 34.9188 35.1295 34.9617 35.3866C35.0774 36.0936 35.1367 36.8074 35.1394 37.5223V41.0937H35.1395ZM50.7571 41.0937H39.0439V37.5223C39.0439 36.9634 39.0088 36.4098 38.9542 35.8616C38.9385 35.7009 38.9113 35.542 38.8917 35.3813C38.839 34.9866 38.7785 34.5956 38.6964 34.208C38.6613 34.0426 38.6243 33.8765 38.5851 33.7098C38.4915 33.3122 38.3828 32.9181 38.2591 32.5277C38.2182 32.3991 38.181 32.2687 38.1381 32.142C37.5915 30.5435 36.7993 29.0243 35.7858 27.6296L35.7096 27.5278C35.3739 27.0718 35.0153 26.6308 34.6339 26.2046L34.6203 26.1885C34.2299 25.7457 33.8062 25.3152 33.3611 24.9081C33.3865 24.9081 33.4139 24.9081 33.4412 24.9081C33.9921 24.9743 34.5468 25.0101 35.1025 25.0152H35.2099C35.7242 25.0112 36.2377 24.9807 36.7483 24.9242C36.9084 24.9063 37.0666 24.8795 37.2266 24.8563C37.6418 24.798 38.0518 24.7224 38.4565 24.6296C38.5716 24.6028 38.6888 24.5778 38.8059 24.5474C39.337 24.4153 39.8586 24.253 40.3676 24.0617C46.6145 26.063 50.7863 31.4681 50.7572 37.5224V41.0937H50.7571Z" fill="#01C4FA"/>
</svg>
